<svg xmlns="http://www.w3.org/2000/svg" width="200" height="200" viewBox="0 0 200 200" version="1.1"><path d="M 99 39.393 C 99 45.042, 98.646 46.922, 97.500 47.362 C 96.510 47.742, 96 49.308, 96 51.969 L 96 56 100 56 L 104 56 104 51.969 C 104 49.308, 103.490 47.742, 102.500 47.362 C 101.354 46.922, 101 45.042, 101 39.393 C 101 35.131, 100.576 32, 100 32 C 99.424 32, 99 35.131, 99 39.393 M 98.667 49.667 C 97.449 50.885, 97.978 53, 99.500 53 C 100.333 53, 101 52.111, 101 51 C 101 49.008, 99.934 48.399, 98.667 49.667 M 81.452 52.406 C 76.717 54.468, 75 57.953, 75 65.500 C 75 71.686, 74.887 72.010, 73.066 71.035 C 69.634 69.199, 64.318 69.823, 61.306 72.415 C 58.861 74.520, 58.506 75.523, 58.549 80.223 C 58.664 92.832, 67.835 104.454, 80.457 107.988 C 84.212 109.039, 85 109.671, 85 111.630 C 85 114.704, 86.529 114.649, 88.592 111.500 C 90.154 109.116, 90.682 109, 100 109 C 109.318 109, 109.846 109.116, 111.408 111.500 C 113.471 114.649, 115 114.704, 115 111.630 C 115 109.671, 115.788 109.039, 119.543 107.988 C 131.076 104.759, 139.699 94.858, 141.513 82.762 C 142.267 77.737, 140.398 72.818, 137.055 71.030 C 134.581 69.705, 129.414 69.708, 126.934 71.035 C 125.113 72.010, 125 71.686, 125 65.500 C 125 57.846, 123.263 54.426, 118.328 52.364 C 113.787 50.466, 107 50.548, 107 52.500 C 107 53.631, 108.216 54, 111.944 54 C 115.729 54, 117.546 54.566, 119.694 56.413 C 122.464 58.796, 122.500 58.972, 122.500 70.262 C 122.500 88.467, 120.772 90, 100.248 90 C 78.970 90, 77.500 88.751, 77.500 70.665 C 77.500 58.937, 77.525 58.807, 80.306 56.415 C 82.454 54.566, 84.270 54, 88.056 54 C 91.784 54, 93 53.631, 93 52.500 C 93 50.572, 85.798 50.513, 81.452 52.406 M 87.813 65.258 L 83.126 73.500 91.563 73.789 C 96.203 73.948, 103.797 73.948, 108.437 73.789 L 116.874 73.500 112.187 65.258 L 107.500 57.017 100 57.017 L 92.500 57.017 87.813 65.258 M 92.792 62.206 C 91.970 63.468, 90.543 65.963, 89.623 67.750 L 87.949 71 100.071 71 L 112.193 71 109.232 65.750 L 106.270 60.500 100.279 60.206 C 94.962 59.945, 94.119 60.170, 92.792 62.206 M 63.635 74.073 C 60.542 76.506, 60.234 80.071, 62.471 87.568 C 64.307 93.721, 68.747 99.179, 74.824 102.751 L 79.500 105.500 100 105.500 C 120.389 105.500, 120.524 105.486, 125 102.845 C 133.126 98.051, 137.738 90.939, 138.688 81.738 C 139.205 76.722, 139.049 76.183, 136.488 74.169 C 131.149 69.970, 126.383 72.568, 124.904 80.484 C 123.813 86.326, 120.177 90.578, 115.057 92.001 C 110.452 93.280, 89.548 93.280, 84.943 92.001 C 79.823 90.578, 76.187 86.326, 75.096 80.484 C 73.632 72.646, 68.850 69.971, 63.635 74.073 M 93 76.326 C 93 78.481, 97.428 82, 100.140 82 C 102.691 82, 107 78.348, 107 76.186 C 107 75.384, 104.730 75, 100 75 C 94.854 75, 93 75.351, 93 76.326 M 65.480 78.032 C 65.092 78.660, 65.245 79.645, 65.820 80.220 C 67.164 81.564, 70.297 80.392, 69.750 78.749 C 69.194 77.078, 66.364 76.602, 65.480 78.032 M 130.480 78.032 C 130.092 78.660, 130.245 79.645, 130.820 80.220 C 132.164 81.564, 135.297 80.392, 134.750 78.749 C 134.194 77.078, 131.364 76.602, 130.480 78.032 M 61.362 128.500 C 61.045 129.325, 61.104 130.787, 61.493 131.750 C 62.121 133.305, 62.297 133.249, 63.068 131.250 C 63.703 129.602, 64.747 129, 66.968 129 L 70 129 70 137.950 C 70 145.419, 69.710 147.069, 68.250 147.920 C 66.909 148.701, 67.786 148.939, 72 148.938 C 76.785 148.937, 77.272 148.764, 75.750 147.608 C 74.321 146.523, 74 144.695, 74 137.640 L 74 129 77.347 129 C 79.830 129, 80.975 129.581, 81.780 131.250 C 82.803 133.372, 82.868 133.315, 82.932 130.250 L 83 127 72.469 127 C 64.030 127, 61.823 127.298, 61.362 128.500 M 114 128 C 114 128.550, 114.450 129, 115 129 C 115.592 129, 116 132.650, 116 137.950 C 116 145.419, 115.710 147.069, 114.250 147.920 C 112.875 148.721, 113.465 148.939, 117 148.939 C 120.535 148.939, 121.125 148.721, 119.750 147.920 C 118.326 147.091, 118 145.484, 118 139.302 L 118 131.703 124.643 140.352 C 128.296 145.108, 131.671 149, 132.143 149 C 132.614 149, 133 144.711, 133 139.469 C 133 131.919, 133.312 129.818, 134.500 129.362 C 137.198 128.326, 136.075 127, 132.500 127 C 129.236 127, 127.677 128.392, 130.054 129.185 C 130.690 129.397, 130.987 132.078, 130.804 135.949 L 130.500 142.362 124.726 134.681 C 120.252 128.729, 118.395 127, 116.476 127 C 115.114 127, 114 127.450, 114 128 M 84 136 C 82.762 137.238, 82 139.333, 82 141.500 C 82 147.850, 88.773 151.318, 93.559 147.418 C 95.548 145.798, 94.874 145.834, 90.577 147.577 C 89.795 147.895, 88.220 147.220, 87.077 146.077 C 85.935 144.935, 85 143.100, 85 142 C 85 140.267, 85.667 140, 90 140 C 94.148 140, 95 139.693, 95 138.200 C 95 137.210, 94.460 135.860, 93.800 135.200 C 91.899 133.299, 86.239 133.761, 84 136 M 99.074 135.411 C 98.220 136.440, 98.205 137.008, 99.018 137.511 C 99.631 137.890, 100.713 137.407, 101.422 136.438 C 103.043 134.221, 106 135.197, 106 137.950 C 106 139.246, 105.137 140.179, 103.574 140.571 C 100.399 141.368, 97.735 144.379, 98.173 146.676 C 98.602 148.927, 102.545 149.620, 104.718 147.827 C 105.982 146.783, 106.415 146.767, 106.746 147.750 C 107.248 149.242, 110.623 149.419, 111.500 148 C 111.840 147.450, 111.416 147, 110.559 147 C 109.358 147, 109 145.870, 109 142.082 C 109 139.377, 108.727 136.452, 108.393 135.582 C 107.617 133.559, 100.716 133.433, 99.074 135.411 M 87.250 135.651 C 84.704 136.701, 85.956 139, 89.073 139 C 91.454 139, 92.071 138.608, 91.812 137.261 C 91.466 135.466, 89.435 134.749, 87.250 135.651 M 102.750 142.392 C 100.413 144.166, 100.501 147, 102.893 147 C 104.763 147, 106 145.176, 106 142.418 C 106 140.668, 105.031 140.661, 102.750 142.392 M 37.030 160.135 C 37.014 160.485, 37.575 162.139, 38.279 163.811 L 39.557 166.852 40.704 163.176 C 41.679 160.049, 41.650 159.772, 40.514 161.320 C 39.222 163.079, 39.143 163.079, 38.119 161.320 C 37.537 160.319, 37.047 159.786, 37.030 160.135 M 78.040 161.452 C 75.262 164.798, 79.944 169.557, 82.928 166.420 C 84.374 164.898, 84.329 164.854, 82.355 165.862 C 80.687 166.714, 79.940 166.632, 78.993 165.492 C 77.106 163.218, 78.588 160.688, 81.482 161.241 C 82.834 161.500, 83.702 161.326, 83.411 160.856 C 82.574 159.502, 79.362 159.859, 78.040 161.452 M 121 163.500 C 121 165.425, 121.450 167, 122 167 C 122.550 167, 123 166.325, 123 165.500 C 123 163.408, 125.753 163.616, 126.311 165.750 C 126.562 166.713, 126.768 165.700, 126.768 163.500 C 126.768 161.300, 126.562 160.287, 126.311 161.250 C 125.753 163.384, 123 163.592, 123 161.500 C 123 160.675, 122.550 160, 122 160 C 121.450 160, 121 161.575, 121 163.500 M 45.332 163.578 C 44.999 164.445, 45.463 165.892, 46.363 166.792 C 47.836 168.264, 48.154 168.274, 49.537 166.892 C 50.406 166.022, 50.794 164.627, 50.430 163.678 C 49.616 161.556, 46.134 161.488, 45.332 163.578 M 55.100 164.167 C 55.045 165.633, 55.563 167.030, 56.250 167.269 C 58.539 168.068, 60.001 166.815, 59.900 164.143 C 59.804 161.599, 59.776 161.586, 59.150 163.809 C 58.793 165.079, 58.050 166.118, 57.500 166.118 C 56.950 166.118, 56.207 165.079, 55.850 163.809 C 55.227 161.598, 55.195 161.614, 55.100 164.167 M 64.079 164.750 C 64.124 166.317, 64.397 166.855, 64.713 166 C 65.019 165.175, 65.713 163.938, 66.257 163.250 C 66.962 162.358, 66.781 162, 65.622 162 C 64.500 162, 64.024 162.848, 64.079 164.750 M 88.332 163.578 C 87.999 164.445, 88.463 165.892, 89.363 166.792 C 90.879 168.307, 91.121 168.307, 92.637 166.792 C 94.681 164.747, 93.743 162, 91 162 C 89.865 162, 88.665 162.710, 88.332 163.578 M 98.742 162.660 C 99.645 163.024, 99.704 163.685, 98.957 165.081 C 98.131 166.624, 98.263 167, 99.631 167 C 100.568 167, 101.049 166.716, 100.702 166.369 C 100.355 166.021, 100.520 164.896, 101.070 163.869 C 101.915 162.291, 101.714 162.012, 99.785 162.079 C 98.528 162.122, 98.059 162.384, 98.742 162.660 M 106.592 163.500 C 106.994 164.600, 107.292 166.625, 107.256 168 C 107.198 170.176, 107.445 170.002, 109.167 166.656 C 110.255 164.541, 110.928 162.595, 110.664 162.330 C 110.399 162.066, 109.862 162.861, 109.469 164.098 L 108.755 166.346 107.309 163.923 C 106.357 162.330, 106.112 162.185, 106.592 163.500 M 132 164.371 C 132 165.752, 132.445 167.157, 132.989 167.493 C 133.555 167.843, 133.723 167.442, 133.382 166.552 C 133.054 165.698, 133.284 165, 133.893 165 C 134.502 165, 135 165.450, 135 166 C 135 166.550, 135.481 167, 136.070 167 C 138.231 167, 136.534 162.505, 134.250 162.180 C 132.429 161.922, 132 162.340, 132 164.371 M 141.182 164.500 C 141.808 165.875, 142.668 167, 143.093 167 C 144.102 167, 145.358 163.025, 144.591 162.258 C 144.266 161.933, 144 162.417, 144 163.333 C 144 164.250, 143.550 165, 143 165 C 142.450 165, 142 164.325, 142 163.500 C 142 162.675, 141.560 162, 141.021 162 C 140.426 162, 140.489 162.979, 141.182 164.500 M 149.332 163.578 C 148.455 165.862, 151.084 168.221, 153 166.870 C 154.269 165.975, 154.235 165.896, 152.782 166.362 C 151.837 166.665, 150.798 166.482, 150.473 165.956 C 150.148 165.430, 150.809 165, 151.941 165 C 153.105 165, 154 164.348, 154 163.500 C 154 161.499, 150.105 161.563, 149.332 163.578 M 159.136 164.680 C 159.250 167.039, 159.343 167.132, 159.706 165.250 C 159.944 164.012, 160.572 163, 161.102 163 C 161.631 163, 162.495 164.012, 163.022 165.250 C 163.966 167.467, 163.977 167.464, 163.740 165 C 163.573 163.262, 162.815 162.403, 161.250 162.180 C 159.348 161.910, 159.021 162.298, 159.136 164.680 M 46.446 164.087 C 46.077 164.685, 46.294 165.694, 46.929 166.329 C 47.801 167.201, 48.301 167.131, 48.976 166.039 C 49.929 164.497, 49.448 163, 48 163 C 47.515 163, 46.816 163.489, 46.446 164.087 M 89.446 164.087 C 88.416 165.755, 90.733 167.667, 92.113 166.287 C 93.267 165.133, 92.545 163, 91 163 C 90.515 163, 89.816 163.489, 89.446 164.087 M 150.813 163.683 C 151.534 163.972, 152.397 163.936, 152.729 163.604 C 153.061 163.272, 152.471 163.036, 151.417 163.079 C 150.252 163.127, 150.015 163.364, 150.813 163.683" stroke="none" fill="#d7e5fc" fill-rule="evenodd"/><path d="M -0 100.005 L -0 200.010 100.250 199.755 L 200.500 199.500 200.755 99.750 L 201.010 0 100.505 0 L 0 0 -0 100.005 M 0.481 100.500 C 0.481 155.500, 0.602 178.147, 0.750 150.826 C 0.898 123.506, 0.898 78.506, 0.750 50.826 C 0.602 23.147, 0.481 45.500, 0.481 100.500 M 99 39.393 C 99 45.042, 98.646 46.922, 97.500 47.362 C 96.510 47.742, 96 49.308, 96 51.969 L 96 56 100 56 L 104 56 104 51.969 C 104 49.308, 103.490 47.742, 102.500 47.362 C 101.354 46.922, 101 45.042, 101 39.393 C 101 35.131, 100.576 32, 100 32 C 99.424 32, 99 35.131, 99 39.393 M 98.667 49.667 C 97.449 50.885, 97.978 53, 99.500 53 C 100.333 53, 101 52.111, 101 51 C 101 49.008, 99.934 48.399, 98.667 49.667 M 81.452 52.406 C 76.717 54.468, 75 57.953, 75 65.500 C 75 71.686, 74.887 72.010, 73.066 71.035 C 69.634 69.199, 64.318 69.823, 61.306 72.415 C 58.861 74.520, 58.506 75.523, 58.549 80.223 C 58.664 92.832, 67.835 104.454, 80.457 107.988 C 84.212 109.039, 85 109.671, 85 111.630 C 85 114.704, 86.529 114.649, 88.592 111.500 C 90.154 109.116, 90.682 109, 100 109 C 109.318 109, 109.846 109.116, 111.408 111.500 C 113.471 114.649, 115 114.704, 115 111.630 C 115 109.671, 115.788 109.039, 119.543 107.988 C 131.076 104.759, 139.699 94.858, 141.513 82.762 C 142.267 77.737, 140.398 72.818, 137.055 71.030 C 134.581 69.705, 129.414 69.708, 126.934 71.035 C 125.113 72.010, 125 71.686, 125 65.500 C 125 57.846, 123.263 54.426, 118.328 52.364 C 113.787 50.466, 107 50.548, 107 52.500 C 107 53.631, 108.216 54, 111.944 54 C 115.729 54, 117.546 54.566, 119.694 56.413 C 122.464 58.796, 122.500 58.972, 122.500 70.262 C 122.500 88.467, 120.772 90, 100.248 90 C 78.970 90, 77.500 88.751, 77.500 70.665 C 77.500 58.937, 77.525 58.807, 80.306 56.415 C 82.454 54.566, 84.270 54, 88.056 54 C 91.784 54, 93 53.631, 93 52.500 C 93 50.572, 85.798 50.513, 81.452 52.406 M 87.813 65.258 L 83.126 73.500 91.563 73.789 C 96.203 73.948, 103.797 73.948, 108.437 73.789 L 116.874 73.500 112.187 65.258 L 107.500 57.017 100 57.017 L 92.500 57.017 87.813 65.258 M 92.792 62.206 C 91.970 63.468, 90.543 65.963, 89.623 67.750 L 87.949 71 100.071 71 L 112.193 71 109.232 65.750 L 106.270 60.500 100.279 60.206 C 94.962 59.945, 94.119 60.170, 92.792 62.206 M 63.635 74.073 C 60.542 76.506, 60.234 80.071, 62.471 87.568 C 64.307 93.721, 68.747 99.179, 74.824 102.751 L 79.500 105.500 100 105.500 C 120.389 105.500, 120.524 105.486, 125 102.845 C 133.126 98.051, 137.738 90.939, 138.688 81.738 C 139.205 76.722, 139.049 76.183, 136.488 74.169 C 131.149 69.970, 126.383 72.568, 124.904 80.484 C 123.813 86.326, 120.177 90.578, 115.057 92.001 C 110.452 93.280, 89.548 93.280, 84.943 92.001 C 79.823 90.578, 76.187 86.326, 75.096 80.484 C 73.632 72.646, 68.850 69.971, 63.635 74.073 M 93 76.326 C 93 78.481, 97.428 82, 100.140 82 C 102.691 82, 107 78.348, 107 76.186 C 107 75.384, 104.730 75, 100 75 C 94.854 75, 93 75.351, 93 76.326 M 65.480 78.032 C 65.092 78.660, 65.245 79.645, 65.820 80.220 C 67.164 81.564, 70.297 80.392, 69.750 78.749 C 69.194 77.078, 66.364 76.602, 65.480 78.032 M 130.480 78.032 C 130.092 78.660, 130.245 79.645, 130.820 80.220 C 132.164 81.564, 135.297 80.392, 134.750 78.749 C 134.194 77.078, 131.364 76.602, 130.480 78.032 M 61.362 128.500 C 61.045 129.325, 61.104 130.787, 61.493 131.750 C 62.121 133.305, 62.297 133.249, 63.068 131.250 C 63.703 129.602, 64.747 129, 66.968 129 L 70 129 70 137.950 C 70 145.419, 69.710 147.069, 68.250 147.920 C 66.909 148.701, 67.786 148.939, 72 148.938 C 76.785 148.937, 77.272 148.764, 75.750 147.608 C 74.321 146.523, 74 144.695, 74 137.640 L 74 129 77.347 129 C 79.830 129, 80.975 129.581, 81.780 131.250 C 82.803 133.372, 82.868 133.315, 82.932 130.250 L 83 127 72.469 127 C 64.030 127, 61.823 127.298, 61.362 128.500 M 114 128 C 114 128.550, 114.450 129, 115 129 C 115.592 129, 116 132.650, 116 137.950 C 116 145.419, 115.710 147.069, 114.250 147.920 C 112.875 148.721, 113.465 148.939, 117 148.939 C 120.535 148.939, 121.125 148.721, 119.750 147.920 C 118.326 147.091, 118 145.484, 118 139.302 L 118 131.703 124.643 140.352 C 128.296 145.108, 131.671 149, 132.143 149 C 132.614 149, 133 144.711, 133 139.469 C 133 131.919, 133.312 129.818, 134.500 129.362 C 137.198 128.326, 136.075 127, 132.500 127 C 129.236 127, 127.677 128.392, 130.054 129.185 C 130.690 129.397, 130.987 132.078, 130.804 135.949 L 130.500 142.362 124.726 134.681 C 120.252 128.729, 118.395 127, 116.476 127 C 115.114 127, 114 127.450, 114 128 M 84 136 C 82.762 137.238, 82 139.333, 82 141.500 C 82 147.850, 88.773 151.318, 93.559 147.418 C 95.548 145.798, 94.874 145.834, 90.577 147.577 C 89.795 147.895, 88.220 147.220, 87.077 146.077 C 85.935 144.935, 85 143.100, 85 142 C 85 140.267, 85.667 140, 90 140 C 94.148 140, 95 139.693, 95 138.200 C 95 137.210, 94.460 135.860, 93.800 135.200 C 91.899 133.299, 86.239 133.761, 84 136 M 99.074 135.411 C 98.220 136.440, 98.205 137.008, 99.018 137.511 C 99.631 137.890, 100.713 137.407, 101.422 136.438 C 103.043 134.221, 106 135.197, 106 137.950 C 106 139.246, 105.137 140.179, 103.574 140.571 C 100.399 141.368, 97.735 144.379, 98.173 146.676 C 98.602 148.927, 102.545 149.620, 104.718 147.827 C 105.982 146.783, 106.415 146.767, 106.746 147.750 C 107.248 149.242, 110.623 149.419, 111.500 148 C 111.840 147.450, 111.416 147, 110.559 147 C 109.358 147, 109 145.870, 109 142.082 C 109 139.377, 108.727 136.452, 108.393 135.582 C 107.617 133.559, 100.716 133.433, 99.074 135.411 M 87.250 135.651 C 84.704 136.701, 85.956 139, 89.073 139 C 91.454 139, 92.071 138.608, 91.812 137.261 C 91.466 135.466, 89.435 134.749, 87.250 135.651 M 102.750 142.392 C 100.413 144.166, 100.501 147, 102.893 147 C 104.763 147, 106 145.176, 106 142.418 C 106 140.668, 105.031 140.661, 102.750 142.392 M 37.030 160.135 C 37.014 160.485, 37.575 162.139, 38.279 163.811 L 39.557 166.852 40.704 163.176 C 41.679 160.049, 41.650 159.772, 40.514 161.320 C 39.222 163.079, 39.143 163.079, 38.119 161.320 C 37.537 160.319, 37.047 159.786, 37.030 160.135 M 78.040 161.452 C 75.262 164.798, 79.944 169.557, 82.928 166.420 C 84.374 164.898, 84.329 164.854, 82.355 165.862 C 80.687 166.714, 79.940 166.632, 78.993 165.492 C 77.106 163.218, 78.588 160.688, 81.482 161.241 C 82.834 161.500, 83.702 161.326, 83.411 160.856 C 82.574 159.502, 79.362 159.859, 78.040 161.452 M 121 163.500 C 121 165.425, 121.450 167, 122 167 C 122.550 167, 123 166.325, 123 165.500 C 123 163.408, 125.753 163.616, 126.311 165.750 C 126.562 166.713, 126.768 165.700, 126.768 163.500 C 126.768 161.300, 126.562 160.287, 126.311 161.250 C 125.753 163.384, 123 163.592, 123 161.500 C 123 160.675, 122.550 160, 122 160 C 121.450 160, 121 161.575, 121 163.500 M 45.332 163.578 C 44.999 164.445, 45.463 165.892, 46.363 166.792 C 47.836 168.264, 48.154 168.274, 49.537 166.892 C 50.406 166.022, 50.794 164.627, 50.430 163.678 C 49.616 161.556, 46.134 161.488, 45.332 163.578 M 55.100 164.167 C 55.045 165.633, 55.563 167.030, 56.250 167.269 C 58.539 168.068, 60.001 166.815, 59.900 164.143 C 59.804 161.599, 59.776 161.586, 59.150 163.809 C 58.793 165.079, 58.050 166.118, 57.500 166.118 C 56.950 166.118, 56.207 165.079, 55.850 163.809 C 55.227 161.598, 55.195 161.614, 55.100 164.167 M 64.079 164.750 C 64.124 166.317, 64.397 166.855, 64.713 166 C 65.019 165.175, 65.713 163.938, 66.257 163.250 C 66.962 162.358, 66.781 162, 65.622 162 C 64.500 162, 64.024 162.848, 64.079 164.750 M 88.332 163.578 C 87.999 164.445, 88.463 165.892, 89.363 166.792 C 90.879 168.307, 91.121 168.307, 92.637 166.792 C 94.681 164.747, 93.743 162, 91 162 C 89.865 162, 88.665 162.710, 88.332 163.578 M 98.742 162.660 C 99.645 163.024, 99.704 163.685, 98.957 165.081 C 98.131 166.624, 98.263 167, 99.631 167 C 100.568 167, 101.049 166.716, 100.702 166.369 C 100.355 166.021, 100.520 164.896, 101.070 163.869 C 101.915 162.291, 101.714 162.012, 99.785 162.079 C 98.528 162.122, 98.059 162.384, 98.742 162.660 M 106.592 163.500 C 106.994 164.600, 107.292 166.625, 107.256 168 C 107.198 170.176, 107.445 170.002, 109.167 166.656 C 110.255 164.541, 110.928 162.595, 110.664 162.330 C 110.399 162.066, 109.862 162.861, 109.469 164.098 L 108.755 166.346 107.309 163.923 C 106.357 162.330, 106.112 162.185, 106.592 163.500 M 132 164.371 C 132 165.752, 132.445 167.157, 132.989 167.493 C 133.555 167.843, 133.723 167.442, 133.382 166.552 C 133.054 165.698, 133.284 165, 133.893 165 C 134.502 165, 135 165.450, 135 166 C 135 166.550, 135.481 167, 136.070 167 C 138.231 167, 136.534 162.505, 134.250 162.180 C 132.429 161.922, 132 162.340, 132 164.371 M 141.182 164.500 C 141.808 165.875, 142.668 167, 143.093 167 C 144.102 167, 145.358 163.025, 144.591 162.258 C 144.266 161.933, 144 162.417, 144 163.333 C 144 164.250, 143.550 165, 143 165 C 142.450 165, 142 164.325, 142 163.500 C 142 162.675, 141.560 162, 141.021 162 C 140.426 162, 140.489 162.979, 141.182 164.500 M 149.332 163.578 C 148.455 165.862, 151.084 168.221, 153 166.870 C 154.269 165.975, 154.235 165.896, 152.782 166.362 C 151.837 166.665, 150.798 166.482, 150.473 165.956 C 150.148 165.430, 150.809 165, 151.941 165 C 153.105 165, 154 164.348, 154 163.500 C 154 161.499, 150.105 161.563, 149.332 163.578 M 159.136 164.680 C 159.250 167.039, 159.343 167.132, 159.706 165.250 C 159.944 164.012, 160.572 163, 161.102 163 C 161.631 163, 162.495 164.012, 163.022 165.250 C 163.966 167.467, 163.977 167.464, 163.740 165 C 163.573 163.262, 162.815 162.403, 161.250 162.180 C 159.348 161.910, 159.021 162.298, 159.136 164.680 M 46.446 164.087 C 46.077 164.685, 46.294 165.694, 46.929 166.329 C 47.801 167.201, 48.301 167.131, 48.976 166.039 C 49.929 164.497, 49.448 163, 48 163 C 47.515 163, 46.816 163.489, 46.446 164.087 M 89.446 164.087 C 88.416 165.755, 90.733 167.667, 92.113 166.287 C 93.267 165.133, 92.545 163, 91 163 C 90.515 163, 89.816 163.489, 89.446 164.087 M 150.813 163.683 C 151.534 163.972, 152.397 163.936, 152.729 163.604 C 153.061 163.272, 152.471 163.036, 151.417 163.079 C 150.252 163.127, 150.015 163.364, 150.813 163.683" stroke="none" fill="#046cfc" fill-rule="evenodd"/></svg>